<svg width="218" height="40" viewBox="0 0 218 40" fill="none" xmlns="http://www.w3.org/2000/svg">
<path d="M76.3478 15.8012H70.6335L77.5901 4.77019L49.6149 15.3789C49.118 15.6522 48.5466 15.8012 47.8509 15.8012C46.7081 15.8012 45.8137 15.5776 45.118 15.1056C44.5466 14.7081 44.4472 13.8882 44.8944 13.3416L55.4783 0.124224H60.1739L50.6335 11.0559L80.8944 0.149066C81.0435 0.0496872 81.5155 0 82.3106 0C83.4534 0 84.3975 0.248446 85.0683 0.720495C85.6149 1.09317 85.7391 1.86335 85.3664 2.40994L76.3478 15.8012Z" fill="white"/>
<path d="M123.13 12.2733C122.335 13.4907 120 14.4099 116.174 15.0559C113.267 15.5528 110.46 15.8012 107.801 15.8012H84.3975L94.7329 0.0248387H118.137C120.472 0.0248387 122.534 0.149065 124.273 0.372667C127.553 0.795027 129.193 1.56521 129.193 2.68322C129.193 2.93167 129.093 3.20496 128.87 3.52795L123.13 12.2733ZM118.186 10.9814L122.609 4.27329C122.658 4.19875 122.683 4.12422 122.683 4.07453C122.683 3.45341 120.497 3.15528 116.099 3.15528H98.5093L92.2484 12.6956H109.839C111.18 12.6956 112.646 12.5963 114.261 12.3727C116.497 12.0248 117.814 11.5776 118.186 10.9814Z" fill="white"/>
<path d="M163.876 15.8012H140.472C138.161 15.8012 136.124 15.677 134.335 15.4534C131.056 15.0311 129.416 14.2857 129.416 13.2174C129.416 12.9193 129.516 12.6211 129.739 12.323L135.503 3.57764C136.497 2.08696 138.534 1.11801 141.64 0.670807C144.422 0.273291 147.503 0.0745311 150.857 0.0745311H174.236L172.199 3.18012H148.795C144.075 3.18012 141.342 3.72671 140.621 4.84472L136.323 11.3789C136.273 11.4783 136.248 11.5528 136.248 11.6522C136.248 12.3727 138.335 12.7453 142.509 12.7453H165.913L163.876 15.8012ZM144.696 6.06211H170.36L168.323 9.1677H142.758L144.696 6.06211Z" fill="white"/>
<path d="M179.354 15.8012H173.615L183.677 0.0248387H207.851C214.062 0.0248387 217.292 0.77018 217.54 2.26086C217.615 2.68322 217.242 3.55279 216.422 4.84472C215.677 5.96273 215.13 6.80745 214.758 7.35403C213.366 9.46583 208.696 10.5093 200.696 10.5093H198.037C197.888 10.5093 197.416 10.5093 196.646 10.5093C196.224 10.5093 195.95 10.5093 195.826 10.5093L188.149 10.4596L190.186 7.32919H205.913C207.602 7.32919 208.72 7.15527 209.267 6.7826C209.441 6.65838 210.062 5.78882 211.13 4.14906C211.18 4.07453 211.18 4.02484 211.155 3.97515C211.056 3.42857 208.919 3.15528 204.721 3.15528H187.429L179.354 15.8012Z" fill="white"/>
<path d="M1.91305 12.8944L0 15.8012H5.68944C10.9565 7.92546 24.9689 3.18012 34.4348 3.18012L38.9317 3.15528L30.6584 15.8012H36.4721L47.0559 0.0248387H30.882C21.2919 0.0496834 7.18013 4.86956 1.91305 12.8944Z" fill="white"/>
<path d="M1.19255 28.6211V38.8074H8V28.6211H9.1677V38.8074H15.9752V28.6211H17.1429V39.9751H0V28.6211H1.19255Z" fill="white"/>
<path d="M20.0745 39.9752V28.646H21.2422V33.3168H23.1304L30.8323 28.646H32.8199L24.3478 33.8137L32.7454 40H30.7329L23.1801 34.4845H21.2422V39.9752H20.0745Z" fill="white"/>
<path d="M48 36.0745C48 36.8944 47.9255 37.5404 47.7764 38.0621C47.6273 38.559 47.4037 38.9565 47.0807 39.2298C46.7578 39.5031 46.3603 39.7019 45.8634 39.8012C45.3665 39.9006 44.7205 39.9752 43.9255 39.9752H38.9565C38.1863 39.9752 37.5404 39.9006 36.9938 39.7764C36.4472 39.6522 36.0249 39.4286 35.7019 39.1304C35.3789 38.8323 35.1304 38.4348 34.9814 37.9379C34.8323 37.441 34.7329 36.8199 34.7329 36.0994V32.5714C34.7329 31.8261 34.8075 31.205 34.9565 30.7081C35.1056 30.2112 35.3292 29.7888 35.6522 29.4658C35.9752 29.1429 36.3975 28.9193 36.9441 28.7453C37.4658 28.5963 38.1367 28.5217 38.9565 28.5217H43.9255C44.8944 28.5217 45.6646 28.6211 46.236 28.8447C46.8075 29.0683 47.2547 29.4658 47.5528 30.0621C47.8509 30.6584 48 31.4783 48 32.5466V36.0745ZM46.8323 32.4472C46.8075 31.677 46.7329 31.1056 46.559 30.7081C46.3851 30.3106 46.087 30.0373 45.6894 29.8882C45.2919 29.7391 44.6957 29.6397 43.9006 29.6397H38.9317C38.2112 29.6397 37.6149 29.7143 37.1926 29.8882C36.7702 30.0621 36.4472 30.3354 36.2485 30.7578C36.0497 31.1553 35.9255 31.7267 35.9006 32.4472V36.0745C35.9006 36.6211 35.9752 37.0683 36.0745 37.4162C36.1739 37.764 36.3478 38.0373 36.5963 38.2609C36.8447 38.4596 37.1429 38.6087 37.5155 38.6832C37.8882 38.7578 38.3603 38.8074 38.9317 38.8074H43.9006C44.7205 38.8074 45.3168 38.7329 45.7391 38.5838C46.1367 38.4348 46.4348 38.1615 46.5839 37.7888C46.7329 37.4162 46.8323 36.8447 46.8323 36.0745V32.4472Z" fill="white"/>
<path d="M62.236 29.7888H52.9938V37.2671C52.9938 38.236 52.7702 38.9068 52.323 39.3292C51.8758 39.7515 51.2547 39.9503 50.4099 39.9503H49.9379V38.8074H50.559C50.882 38.8074 51.1801 38.6832 51.4286 38.4596C51.677 38.236 51.8012 37.8385 51.8012 37.2671V28.5963H63.4037V39.9751H62.236V29.7888Z" fill="white"/>
<path d="M66.5093 39.9752H65.1926L71.0807 28.646H72.8696L78.7826 39.9752H77.4162L75.9752 37.1429H68L66.5093 39.9752ZM68.6211 35.9752H75.354L72 29.441L68.6211 35.9752Z" fill="white"/>
<path d="M86.087 28.6211H98.3105V29.764H92.7702V39.9503H91.6025V29.764H86.087V28.6211Z" fill="white"/>
<path d="M100.497 39.9503V28.6211H108.149C109.093 28.6211 109.863 28.7453 110.435 28.9689C111.006 29.1925 111.453 29.5652 111.727 30.087C112 30.6087 112.124 31.2795 112.124 32.1242C112.124 32.9689 112 33.6149 111.727 34.0621C111.453 34.5093 111.056 34.8323 110.484 35.0062C109.913 35.1801 109.143 35.2795 108.149 35.2795H101.665V39.9503H100.497ZM101.689 34.1366H108.522C109.168 34.1366 109.665 34.0869 110.012 33.9876C110.36 33.8882 110.609 33.6894 110.758 33.4161C110.907 33.1428 110.981 32.6956 110.981 32.1491C110.981 31.2795 110.807 30.6832 110.46 30.3106C110.112 29.9379 109.516 29.7888 108.671 29.7888H101.714V34.1366H101.689Z" fill="white"/>
<path d="M125.888 39.9752V29.5155H125.441L116.447 39.9752H114.559V28.646H115.727V39.1056H115.826L124.795 28.646H127.056V39.9752H125.888Z" fill="white"/>
<path d="M130.236 39.9752H128.919L134.807 28.646H136.596L142.484 39.9752H141.118L139.677 37.1429H131.702L130.236 39.9752ZM132.323 35.9752H139.056L135.677 29.441L132.323 35.9752Z" fill="white"/>
<path d="M143.776 28.6211H156V29.764H150.46V39.9503H149.292V29.764H143.776V28.6211Z" fill="white"/>
<path d="M169.814 29.7888H160.571V37.2671C160.571 38.236 160.348 38.9068 159.901 39.3292C159.453 39.7515 158.832 39.9503 157.988 39.9503H157.516V38.8074H158.137C158.46 38.8074 158.758 38.6832 159.006 38.4596C159.255 38.236 159.379 37.8385 159.379 37.2671V28.5963H170.981V39.9751H169.814V29.7888Z" fill="white"/>
<path d="M186.783 36.0745C186.783 36.8944 186.708 37.5404 186.559 38.0621C186.41 38.559 186.186 38.9565 185.863 39.2298C185.54 39.5031 185.143 39.7019 184.646 39.8012C184.149 39.9006 183.503 39.9752 182.708 39.9752H177.739C176.969 39.9752 176.323 39.9006 175.776 39.7764C175.23 39.6522 174.807 39.4286 174.484 39.1304C174.161 38.8323 173.913 38.4348 173.764 37.9379C173.615 37.441 173.516 36.8199 173.516 36.0994V32.5714C173.516 31.8261 173.59 31.205 173.739 30.7081C173.888 30.2112 174.112 29.7888 174.435 29.4658C174.758 29.1429 175.18 28.9193 175.727 28.7453C176.248 28.5963 176.919 28.5217 177.739 28.5217H182.708C183.677 28.5217 184.447 28.6211 185.019 28.8447C185.59 29.0683 186.037 29.4658 186.335 30.0621C186.634 30.6584 186.783 31.4783 186.783 32.5466V36.0745ZM185.59 32.4472C185.565 31.677 185.491 31.1056 185.317 30.7081C185.143 30.3106 184.845 30.0373 184.447 29.8882C184.05 29.7391 183.453 29.6397 182.658 29.6397H177.689C176.969 29.6397 176.373 29.7143 175.95 29.8882C175.528 30.0621 175.205 30.3354 175.006 30.7578C174.807 31.1553 174.683 31.7267 174.658 32.4472V36.0745C174.658 36.6211 174.733 37.0683 174.832 37.4162C174.932 37.764 175.106 38.0373 175.354 38.2609C175.602 38.4596 175.901 38.6087 176.273 38.6832C176.646 38.7578 177.118 38.8074 177.689 38.8074H182.658C183.478 38.8074 184.075 38.7329 184.497 38.5838C184.894 38.4348 185.193 38.1615 185.342 37.7888C185.491 37.4162 185.59 36.8447 185.59 36.0745V32.4472Z" fill="white"/>
<path d="M189.491 39.9751V28.646H190.658V33.5155H200.72V28.6211H201.888V39.9751H200.72V34.7081H190.658V39.9751H189.491Z" fill="white"/>
<path d="M204.994 39.9752H203.677L209.565 28.646H211.354L217.242 39.9752H215.876L214.435 37.1429H206.46L204.994 39.9752ZM207.081 35.9752H213.814L210.46 29.441L207.081 35.9752Z" fill="white"/>
</svg>
