<svg width="17" height="13" viewBox="0 0 17 13" fill="none" xmlns="http://www.w3.org/2000/svg">
<path d="M15.0665 13C15.439 13 15.7604 12.8768 16.0337 12.6335L11.348 7.94478C11.2368 8.02588 11.1257 8.10397 11.0236 8.17907C10.6721 8.43738 10.3868 8.63863 10.1705 8.78281C9.95125 8.92699 9.65989 9.07417 9.29945 9.22736C8.936 9.37754 8.59658 9.45263 8.28419 9.45263H8.26617C7.95079 9.45263 7.61437 9.37754 7.25092 9.22736C6.88748 9.07717 6.59612 8.92999 6.37985 8.78281C6.16058 8.63863 5.87523 8.43738 5.5268 8.17907C5.42768 8.10698 5.31955 8.02888 5.2024 7.94478L0.507625 12.6335C0.780961 12.8768 1.10536 13 1.47481 13H15.0665Z" fill="white"/>
<path d="M0.931146 4.99515C0.579713 4.76086 0.270333 4.49353 0 4.19316V11.3239L4.13008 7.19386C3.30407 6.61414 2.24076 5.88424 0.931146 4.99515Z" fill="white"/>
<path d="M15.6222 4.99515C14.3637 5.84519 13.2974 6.5781 12.4143 7.19385L16.5444 11.3239V4.19016C16.28 4.48752 15.9707 4.75485 15.6222 4.99515Z" fill="white"/>
<path d="M15.0665 0H1.47782C1.00323 0 0.639787 0.159196 0.384473 0.480592C0.129159 0.798983 0 1.20148 0 1.67907C0 2.06654 0.168207 2.48706 0.507625 2.94062C0.847042 3.39418 1.20749 3.74861 1.58896 4.00693C1.79921 4.15411 2.42999 4.59265 3.48128 5.32255C4.04898 5.71604 4.54459 6.05846 4.96811 6.35582C5.33156 6.60813 5.64094 6.8274 5.89926 7.00763C5.9293 7.02865 5.97435 7.06169 6.03743 7.10675C6.10351 7.15481 6.18762 7.21488 6.29274 7.28997C6.49399 7.43415 6.6592 7.55129 6.79136 7.6414C6.92352 7.73152 7.08272 7.83064 7.27195 7.94177C7.45818 8.05291 7.6354 8.13702 7.8036 8.19108C7.96881 8.24515 8.125 8.27518 8.26617 8.27518H8.28419C8.42537 8.27518 8.57856 8.24815 8.74677 8.19108C8.91197 8.13702 9.08919 8.05291 9.27842 7.94177C9.46465 7.83064 9.62685 7.73152 9.75901 7.6414C9.89117 7.55129 10.0564 7.43415 10.2576 7.28997C10.3628 7.21488 10.4469 7.15481 10.5129 7.10675C10.576 7.06169 10.6211 7.02865 10.6511 7.00763C10.8524 6.86645 11.1647 6.65018 11.5853 6.35883C12.3512 5.82717 13.4776 5.04321 14.9704 4.00693C15.421 3.69455 15.7964 3.31308 16.0968 2.87153C16.3972 2.42999 16.5504 1.96442 16.5504 1.47782C16.5504 1.07232 16.4032 0.723891 16.1118 0.435536C15.8145 0.144177 15.466 0 15.0665 0Z" fill="white"/>
</svg>
