<svg width="13" height="13" viewBox="0 0 13 13" fill="none" xmlns="http://www.w3.org/2000/svg">
<path d="M8.54739 6.53483C8.54739 7.89982 7.44132 9.00589 6.07633 9.00589C4.71134 9.00589 3.60527 7.89982 3.60527 6.53483C3.60527 5.16983 4.71134 4.06377 6.07633 4.06377C7.44132 4.06377 8.54739 5.16983 8.54739 6.53483Z" fill="#009EE3"/>
<path d="M11.8543 2.16403C11.7361 1.84319 11.5448 1.55049 11.2999 1.31127C11.0607 1.06641 10.7708 0.87503 10.4471 0.756825C10.1854 0.655505 9.79418 0.534485 9.07087 0.500712C8.28847 0.464125 8.05487 0.458496 6.07633 0.458496C4.0978 0.458496 3.8642 0.466939 3.08179 0.500712C2.35848 0.534485 1.96728 0.655505 1.70554 0.756825C1.38469 0.87503 1.09199 1.06641 0.852769 1.31127C0.607915 1.55049 0.416534 1.84038 0.298329 2.16403C0.197009 2.42578 0.0759893 2.81698 0.0422163 3.54029C0.00562884 4.32269 0 4.55629 0 6.53483C0 8.51337 0.00844326 8.74696 0.0422163 9.52937C0.0759893 10.2527 0.197009 10.6439 0.298329 10.9056C0.416534 11.2265 0.607915 11.5192 0.852769 11.7584C1.09199 12.0032 1.38188 12.1946 1.70554 12.3128C1.96728 12.4142 2.35848 12.5352 3.08179 12.5689C3.8642 12.6055 4.0978 12.6112 6.07633 12.6112C8.05487 12.6112 8.29128 12.6027 9.07087 12.5689C9.79418 12.5352 10.1854 12.4142 10.4471 12.3128C11.0944 12.0623 11.6039 11.5529 11.8543 10.9056C11.9557 10.6439 12.0767 10.2527 12.1104 9.52937C12.147 8.74696 12.1527 8.51337 12.1527 6.53483C12.1527 4.55629 12.1442 4.32269 12.1104 3.54029C12.0767 2.81698 11.9557 2.42578 11.8543 2.16403ZM6.07633 10.3399C3.97396 10.3399 2.27124 8.6372 2.27124 6.53483C2.27124 4.43246 3.97396 2.72973 6.07633 2.72973C8.1787 2.72973 9.88143 4.43246 9.88143 6.53483C9.88143 8.6372 8.1787 10.3399 6.07633 10.3399ZM10.0334 3.46711C9.54088 3.46711 9.14405 3.07028 9.14405 2.57775C9.14405 2.08523 9.54088 1.6884 10.0334 1.6884C10.5259 1.6884 10.9228 2.08523 10.9228 2.57775C10.9228 3.07028 10.5231 3.46711 10.0334 3.46711Z" fill="#009EE3"/>
</svg>
