<svg width="27" height="37" viewBox="0 0 27 37" fill="none" xmlns="http://www.w3.org/2000/svg">
<path d="M13.103 0.0825195C5.87966 0.0825195 0.0356445 6.10629 0.0356445 13.5518C0.0356445 15.4974 0.434925 17.3307 1.16089 19.0518C4.42773 26.4225 10.671 34.2047 12.5222 36.4122C12.6674 36.5619 12.8489 36.6741 13.0667 36.6741C13.2845 36.6741 13.466 36.5619 13.6112 36.4122C15.4624 34.2047 21.7057 26.4225 24.9725 19.0518C25.7348 17.3307 26.0978 15.4974 26.0978 13.5518C26.1341 6.10629 20.2901 0.0825195 13.103 0.0825195ZM13.103 20.5484C9.36429 20.5484 6.31524 17.4055 6.31524 13.5518C6.31524 9.6981 9.36429 6.55526 13.103 6.55526C16.8417 6.55526 19.8908 9.6981 19.8908 13.5518C19.8908 17.4055 16.8417 20.5484 13.103 20.5484Z" fill="white"/>
</svg>
