<svg width="20" height="20" viewBox="0 0 20 20" fill="none" xmlns="http://www.w3.org/2000/svg">
<path d="M14.0667 10C14.0667 12.2464 12.2464 14.0667 10 14.0667C7.75359 14.0667 5.9333 12.2464 5.9333 10C5.9333 7.75359 7.75359 5.9333 10 5.9333C12.2464 5.9333 14.0667 7.75359 14.0667 10Z" fill="white"/>
<path d="M19.509 2.80685C19.3145 2.27883 18.9995 1.79713 18.5966 1.40343C18.2029 1.00046 17.7258 0.685503 17.1931 0.490968C16.7624 0.324224 16.1186 0.125058 14.9282 0.0694766C13.6406 0.00926355 13.2561 0 10 0C6.74386 0 6.35943 0.0138953 5.07179 0.0694766C3.88143 0.125058 3.23761 0.324224 2.80685 0.490968C2.27883 0.685503 1.79713 1.00046 1.40343 1.40343C1.00046 1.79713 0.685503 2.2742 0.490968 2.80685C0.324224 3.23761 0.125058 3.88143 0.0694766 5.07179C0.00926355 6.35943 0 6.74386 0 10C0 13.2561 0.0138953 13.6406 0.0694766 14.9282C0.125058 16.1186 0.324224 16.7624 0.490968 17.1931C0.685503 17.7212 1.00046 18.2029 1.40343 18.5966C1.79713 18.9995 2.2742 19.3145 2.80685 19.509C3.23761 19.6758 3.88143 19.8749 5.07179 19.9305C6.35943 19.9907 6.74386 20 10 20C13.2561 20 13.6452 19.9861 14.9282 19.9305C16.1186 19.8749 16.7624 19.6758 17.1931 19.509C18.2585 19.0968 19.0968 18.2585 19.509 17.1931C19.6758 16.7624 19.8749 16.1186 19.9305 14.9282C19.9907 13.6406 20 13.2561 20 10C20 6.74386 19.9861 6.35943 19.9305 5.07179C19.8749 3.88143 19.6758 3.23761 19.509 2.80685ZM10 16.2622C6.54006 16.2622 3.73784 13.4599 3.73784 10C3.73784 6.54006 6.54006 3.73784 10 3.73784C13.4599 3.73784 16.2622 6.54006 16.2622 10C16.2622 13.4599 13.4599 16.2622 10 16.2622ZM16.5123 4.95137C15.7017 4.95137 15.0486 4.29829 15.0486 3.48773C15.0486 2.67717 15.7017 2.02409 16.5123 2.02409C17.3228 2.02409 17.9759 2.67717 17.9759 3.48773C17.9759 4.29829 17.3182 4.95137 16.5123 4.95137Z" fill="white"/>
</svg>
