<svg width="160" height="30" viewBox="0 0 160 30" fill="none" xmlns="http://www.w3.org/2000/svg">
<path d="M56.1511 11.8509H51.9484L57.0647 3.57764L36.49 11.5342C36.1245 11.7391 35.7043 11.8509 35.1926 11.8509C34.3521 11.8509 33.6943 11.6832 33.1827 11.3292C32.7624 11.0311 32.6893 10.4161 33.0182 10.0062L40.8023 0.0931677H44.2558L37.2391 8.29193L59.4949 0.1118C59.6046 0.0372654 59.9517 0 60.5365 0C61.377 0 62.0713 0.186334 62.5647 0.540372C62.9667 0.819875 63.0581 1.39751 62.784 1.80745L56.1511 11.8509Z" fill="white"/>
<path d="M90.558 9.20496C89.9733 10.118 88.2557 10.8074 85.4417 11.2919C83.3039 11.6646 81.2391 11.8509 79.2839 11.8509H62.0713L69.6727 0.018629H86.8853C88.6029 0.018629 90.1195 0.111798 91.3985 0.2795C93.8105 0.59627 95.0165 1.17391 95.0165 2.01242C95.0165 2.19875 94.9434 2.40372 94.7789 2.64596L90.558 9.20496ZM86.9218 8.23602L90.1743 3.20497C90.2108 3.14906 90.2291 3.09316 90.2291 3.0559C90.2291 2.59006 88.6211 2.36646 85.3869 2.36646H72.4501L67.8454 9.52173H80.7823C81.769 9.52173 82.8471 9.4472 84.0348 9.2795C85.6793 9.01863 86.6477 8.68323 86.9218 8.23602Z" fill="white"/>
<path d="M120.525 11.8509H103.312C101.613 11.8509 100.114 11.7578 98.7989 11.5901C96.3869 11.2733 95.1809 10.7143 95.1809 9.91304C95.1809 9.68944 95.254 9.46584 95.4185 9.24223L99.6577 2.68323C100.389 1.56522 101.887 0.838509 104.171 0.503105C106.217 0.204968 108.483 0.0558983 110.95 0.0558983H128.144L126.646 2.38509H109.433C105.962 2.38509 103.952 2.79503 103.422 3.63354L100.261 8.53416C100.224 8.60869 100.206 8.66459 100.206 8.73913C100.206 9.2795 101.741 9.559 104.811 9.559H122.023L120.525 11.8509ZM106.418 4.54658H125.294L123.796 6.87578H104.993L106.418 4.54658Z" fill="white"/>
<path d="M131.908 11.8509H127.688L135.088 0.018629H152.867C157.435 0.018629 159.81 0.577635 159.993 1.69565C160.048 2.01242 159.774 2.66459 159.171 3.63354C158.623 4.47205 158.221 5.10559 157.947 5.51552C156.923 7.09937 153.488 7.88198 147.604 7.88198H145.649C145.54 7.88198 145.193 7.88198 144.626 7.88198C144.315 7.88198 144.114 7.88198 144.023 7.88198L138.377 7.84472L139.875 5.49689H151.442C152.684 5.49689 153.506 5.36645 153.908 5.08695C154.036 4.99378 154.493 4.34161 155.279 3.1118C155.315 3.0559 155.315 3.01863 155.297 2.98136C155.224 2.57143 153.653 2.36646 150.565 2.36646H137.847L131.908 11.8509Z" fill="white"/>
<path d="M1.40698 9.6708L0 11.8509H4.18438C8.05813 5.94409 18.3638 2.38509 25.3255 2.38509L28.6329 2.36646L22.5481 11.8509H26.8239L34.6079 0.018629H22.7126C15.6595 0.0372625 5.28073 3.65217 1.40698 9.6708Z" fill="white"/>
<path d="M0.877076 21.4658V29.1056H5.88372V21.4658H6.74251V29.1056H11.7492V21.4658H12.608V29.9814H0V21.4658H0.877076Z" fill="white"/>
<path d="M14.7641 29.9814V21.4845H15.6229V24.9876H17.0116L22.6761 21.4845H24.1378L17.907 25.3602L24.083 30H22.603L17.0482 25.8634H15.6229V29.9814H14.7641Z" fill="white"/>
<path d="M35.3023 27.0559C35.3023 27.6708 35.2475 28.1553 35.1378 28.5466C35.0282 28.9193 34.8637 29.2174 34.6262 29.4224C34.3887 29.6273 34.0963 29.7764 33.7309 29.8509C33.3654 29.9255 32.8903 29.9814 32.3056 29.9814H28.6511C28.0847 29.9814 27.6096 29.9255 27.2076 29.8323C26.8056 29.7391 26.495 29.5714 26.2574 29.3478C26.0199 29.1242 25.8372 28.8261 25.7276 28.4534C25.6179 28.0807 25.5448 27.6149 25.5448 27.0745V24.4286C25.5448 23.8696 25.5996 23.4037 25.7093 23.0311C25.8189 22.6584 25.9834 22.3416 26.2209 22.0994C26.4584 21.8571 26.7691 21.6894 27.1711 21.559C27.5548 21.4472 28.0481 21.3913 28.6511 21.3913H32.3056C33.0182 21.3913 33.5847 21.4658 34.0049 21.6335C34.4252 21.8012 34.7541 22.0994 34.9734 22.5466C35.1926 22.9938 35.3023 23.6087 35.3023 24.4099V27.0559ZM34.4435 24.3354C34.4252 23.7578 34.3704 23.3292 34.2425 23.0311C34.1146 22.7329 33.8953 22.5279 33.603 22.4161C33.3106 22.3043 32.8721 22.2298 32.2873 22.2298H28.6329C28.103 22.2298 27.6644 22.2857 27.3538 22.4161C27.0432 22.5466 26.8056 22.7516 26.6594 23.0683C26.5133 23.3665 26.4219 23.795 26.4036 24.3354V27.0559C26.4036 27.4658 26.4584 27.8012 26.5315 28.0621C26.6046 28.323 26.7325 28.5279 26.9153 28.6957C27.098 28.8447 27.3172 28.9565 27.5913 29.0124C27.8654 29.0683 28.2126 29.1056 28.6329 29.1056H32.2873C32.8903 29.1056 33.3289 29.0497 33.6395 28.9379C33.9319 28.8261 34.1511 28.6211 34.2608 28.3416C34.3704 28.0621 34.4435 27.6335 34.4435 27.0559V24.3354Z" fill="white"/>
<path d="M45.7724 22.3416H38.975V27.9503C38.975 28.677 38.8106 29.1801 38.4817 29.4969C38.1528 29.8137 37.696 29.9627 37.0747 29.9627H36.7275V29.1056H37.1843C37.4219 29.1056 37.6411 29.0124 37.8239 28.8447C38.0066 28.677 38.098 28.3789 38.098 27.9503V21.4472H46.6312V29.9814H45.7724V22.3416Z" fill="white"/>
<path d="M48.9152 29.9814H47.9468L52.2773 21.4845H53.593L57.9418 29.9814H56.9368L55.877 27.8571H50.0116L48.9152 29.9814ZM50.4684 26.9814H55.4202L52.9534 22.0807L50.4684 26.9814Z" fill="white"/>
<path d="M63.3139 21.4658H72.3039V22.323H68.2291V29.9627H67.3703V22.323H63.3139V21.4658Z" fill="white"/>
<path d="M73.9119 29.9627V21.4658H79.5398C80.2341 21.4658 80.8006 21.559 81.2208 21.7267C81.6411 21.8944 81.97 22.1739 82.171 22.5652C82.372 22.9565 82.4633 23.4596 82.4633 24.0932C82.4633 24.7267 82.372 25.2112 82.171 25.5466C81.97 25.882 81.6776 26.1242 81.2574 26.2547C80.8371 26.3851 80.2707 26.4596 79.5398 26.4596H74.7707V29.9627H73.9119ZM74.7889 25.6025H79.8138C80.2889 25.6025 80.6544 25.5652 80.9102 25.4907C81.166 25.4161 81.3487 25.2671 81.4584 25.0621C81.568 24.8571 81.6228 24.5217 81.6228 24.1118C81.6228 23.4596 81.4949 23.0124 81.2391 22.7329C80.9833 22.4534 80.5447 22.3416 79.9235 22.3416H74.8072V25.6025H74.7889Z" fill="white"/>
<path d="M92.5862 29.9814V22.1366H92.2573L85.6427 29.9814H84.254V21.4845H85.1128V29.3292H85.1859L91.7823 21.4845H93.4451V29.9814H92.5862Z" fill="white"/>
<path d="M95.7839 29.9814H94.8155L99.1461 21.4845H100.462L104.792 29.9814H103.787L102.727 27.8571H96.862L95.7839 29.9814ZM97.3188 26.9814H102.271L99.7856 22.0807L97.3188 26.9814Z" fill="white"/>
<path d="M105.742 21.4658H114.732V22.323H110.658V29.9627H109.799V22.323H105.742V21.4658Z" fill="white"/>
<path d="M124.892 22.3416H118.095V27.9503C118.095 28.677 117.93 29.1801 117.601 29.4969C117.272 29.8137 116.815 29.9627 116.194 29.9627H115.847V29.1056H116.304C116.541 29.1056 116.761 29.0124 116.943 28.8447C117.126 28.677 117.217 28.3789 117.217 27.9503V21.4472H125.751V29.9814H124.892V22.3416Z" fill="white"/>
<path d="M137.372 27.0559C137.372 27.6708 137.317 28.1553 137.207 28.5466C137.098 28.9193 136.933 29.2174 136.696 29.4224C136.458 29.6273 136.166 29.7764 135.8 29.8509C135.435 29.9255 134.96 29.9814 134.375 29.9814H130.721C130.154 29.9814 129.679 29.9255 129.277 29.8323C128.875 29.7391 128.565 29.5714 128.327 29.3478C128.09 29.1242 127.907 28.8261 127.797 28.4534C127.688 28.0807 127.614 27.6149 127.614 27.0745V24.4286C127.614 23.8696 127.669 23.4037 127.779 23.0311C127.889 22.6584 128.053 22.3416 128.291 22.0994C128.528 21.8571 128.839 21.6894 129.241 21.559C129.624 21.4472 130.118 21.3913 130.721 21.3913H134.375C135.088 21.3913 135.654 21.4658 136.075 21.6335C136.495 21.8012 136.824 22.0994 137.043 22.5466C137.262 22.9938 137.372 23.6087 137.372 24.4099V27.0559ZM136.495 24.3354C136.477 23.7578 136.422 23.3292 136.294 23.0311C136.166 22.7329 135.947 22.5279 135.654 22.4161C135.362 22.3043 134.923 22.2298 134.339 22.2298H130.684C130.154 22.2298 129.716 22.2857 129.405 22.4161C129.095 22.5466 128.857 22.7516 128.711 23.0683C128.565 23.3665 128.473 23.795 128.455 24.3354V27.0559C128.455 27.4658 128.51 27.8012 128.583 28.0621C128.656 28.323 128.784 28.5279 128.967 28.6957C129.149 28.8447 129.369 28.9565 129.643 29.0124C129.917 29.0683 130.264 29.1056 130.684 29.1056H134.339C134.942 29.1056 135.38 29.0497 135.691 28.9379C135.983 28.8261 136.202 28.6211 136.312 28.3416C136.422 28.0621 136.495 27.6335 136.495 27.0559V24.3354Z" fill="white"/>
<path d="M139.364 29.9814V21.4845H140.222V25.1366H147.623V21.4658H148.482V29.9814H147.623V26.031H140.222V29.9814H139.364Z" fill="white"/>
<path d="M150.766 29.9814H149.797L154.128 21.4845H155.443L159.774 29.9814H158.769L157.709 27.8571H151.844L150.766 29.9814ZM152.3 26.9814H157.252L154.786 22.0807L152.3 26.9814Z" fill="white"/>
</svg>
