<svg width="13" height="13" viewBox="0 0 13 13" fill="none" xmlns="http://www.w3.org/2000/svg">
<path d="M6.07633 0.458496C2.72007 0.458496 0 3.17857 0 6.53483C0 9.89109 2.72007 12.6112 6.07633 12.6112C9.43259 12.6112 12.1527 9.89109 12.1527 6.53483C12.1527 3.17857 9.43259 0.458496 6.07633 0.458496ZM9.28482 9.32503L8.79891 9.81094C8.71125 9.8986 8.45827 9.9512 8.45076 9.9512C6.91039 9.96372 5.43013 9.3601 4.34059 8.27056C3.24856 7.17853 2.64243 5.69075 2.65996 4.14537C2.65996 4.14537 2.71506 3.89741 2.80273 3.81225L3.28863 3.32634C3.46646 3.14851 3.8096 3.06586 4.04755 3.14601L4.15024 3.18107C4.38818 3.26122 4.64116 3.52421 4.70628 3.76967L4.95173 4.66885C5.01686 4.9118 4.92919 5.25995 4.75136 5.43778L4.42575 5.76339C4.74385 6.94309 5.67058 7.86982 6.85278 8.19042L7.17839 7.86481C7.35622 7.68698 7.70437 7.59681 7.94732 7.66193L8.8465 7.90739C9.08945 7.97501 9.35495 8.22298 9.4351 8.46342L9.47016 8.56612C9.5428 8.80657 9.46265 9.1472 9.28482 9.32503Z" fill="#009EE3"/>
</svg>
