<svg width="48" height="66" viewBox="0 0 48 66" fill="none" xmlns="http://www.w3.org/2000/svg">
<path d="M24.0667 0C10.7632 0 0 10.865 0 24.2945C0 27.8037 0.735371 31.1104 2.07241 34.2147C8.08908 47.5092 19.5876 61.546 22.9971 65.5276C23.2645 65.7975 23.5987 66 23.9998 66C24.401 66 24.7352 65.7975 25.0026 65.5276C28.4121 61.546 39.9106 47.5092 45.9273 34.2147C47.3312 31.1104 47.9997 27.8037 47.9997 24.2945C48.0665 10.865 37.3034 0 24.0667 0ZM24.0667 36.9141C17.1809 36.9141 11.5654 31.2454 11.5654 24.2945C11.5654 17.3436 17.1809 11.6748 24.0667 11.6748C30.9524 11.6748 36.568 17.3436 36.568 24.2945C36.568 31.2454 30.9524 36.9141 24.0667 36.9141Z" fill="white"/>
</svg>
