<svg width="25" height="25" viewBox="0 0 25 25" fill="none" xmlns="http://www.w3.org/2000/svg">
<path d="M17.5834 12.5C17.5834 15.308 15.308 17.5834 12.5 17.5834C9.69199 17.5834 7.41663 15.308 7.41663 12.5C7.41663 9.69199 9.69199 7.41663 12.5 7.41663C15.308 7.41663 17.5834 9.69199 17.5834 12.5Z" fill="#009EE3"/>
<path d="M24.3863 3.50857C24.1431 2.84854 23.7494 2.24641 23.2457 1.75428C22.7536 1.25058 22.1572 0.856878 21.4914 0.61371C20.953 0.40528 20.1482 0.156322 18.6603 0.0868458C17.0507 0.0115794 16.5702 0 12.5 0C8.42983 0 7.94928 0.0173692 6.33974 0.0868458C4.85178 0.156322 4.04701 0.40528 3.50857 0.61371C2.84854 0.856878 2.24641 1.25058 1.75428 1.75428C1.25058 2.24641 0.856878 2.84275 0.61371 3.50857C0.40528 4.04701 0.156322 4.85178 0.0868458 6.33974C0.0115794 7.94928 0 8.42983 0 12.5C0 16.5702 0.0173692 17.0507 0.0868458 18.6603C0.156322 20.1482 0.40528 20.953 0.61371 21.4914C0.856878 22.1515 1.25058 22.7536 1.75428 23.2457C2.24641 23.7494 2.84275 24.1431 3.50857 24.3863C4.04701 24.5947 4.85178 24.8437 6.33974 24.9132C7.94928 24.9884 8.42983 25 12.5 25C16.5702 25 17.0565 24.9826 18.6603 24.9132C20.1482 24.8437 20.953 24.5947 21.4914 24.3863C22.8231 23.871 23.871 22.8231 24.3863 21.4914C24.5947 20.953 24.8437 20.1482 24.9132 18.6603C24.9884 17.0507 25 16.5702 25 12.5C25 8.42983 24.9826 7.94928 24.9132 6.33974C24.8437 4.85178 24.5947 4.04701 24.3863 3.50857ZM12.5 20.3277C8.17508 20.3277 4.6723 16.8249 4.6723 12.5C4.6723 8.17508 8.17508 4.6723 12.5 4.6723C16.8249 4.6723 20.3277 8.17508 20.3277 12.5C20.3277 16.8249 16.8249 20.3277 12.5 20.3277ZM20.6403 6.18921C19.6271 6.18921 18.8108 5.37286 18.8108 4.35966C18.8108 3.34646 19.6271 2.53011 20.6403 2.53011C21.6535 2.53011 22.4699 3.34646 22.4699 4.35966C22.4699 5.37286 21.6478 6.18921 20.6403 6.18921Z" fill="#009EE3"/>
</svg>
