<svg width="21" height="16" viewBox="0 0 21 16" fill="none" xmlns="http://www.w3.org/2000/svg">
<path d="M18.5434 16C19.0018 16 19.3974 15.8484 19.7338 15.549L13.9667 9.77819C13.8299 9.878 13.6932 9.97412 13.5675 10.0665C13.1349 10.3845 12.7837 10.6322 12.5176 10.8096C12.2477 10.9871 11.8891 11.1682 11.4455 11.3567C10.9982 11.5416 10.5804 11.634 10.1959 11.634H10.1738C9.78558 11.634 9.37153 11.5416 8.92421 11.3567C8.47689 11.1719 8.1183 10.9908 7.85213 10.8096C7.58225 10.6322 7.23105 10.3845 6.80222 10.0665C6.68022 9.97782 6.54713 9.8817 6.40296 9.77819L0.624769 15.549C0.961183 15.8484 1.36044 16 1.81516 16H18.5434Z" fill="white"/>
<path d="M1.14603 6.14788C0.713494 5.85952 0.332717 5.5305 0 5.16082V13.9372L5.08318 8.85398C4.06654 8.14048 2.75786 7.24215 1.14603 6.14788Z" fill="white"/>
<path d="M19.2274 6.14787C17.6784 7.19409 16.366 8.09612 15.2791 8.85397L20.3623 13.9372V5.15712C20.037 5.52311 19.6562 5.85213 19.2274 6.14787Z" fill="white"/>
<path d="M18.5434 0H1.81885C1.23475 0 0.787431 0.195933 0.473198 0.591497C0.158965 0.983364 0 1.47874 0 2.06654C0 2.54344 0.207024 3.061 0.624769 3.61922C1.04251 4.17745 1.48614 4.61368 1.95564 4.93161C2.21442 5.11275 2.99076 5.6525 4.28466 6.55083C4.98336 7.03512 5.59335 7.45656 6.1146 7.82255C6.56192 8.13309 6.9427 8.40296 7.26063 8.62477C7.2976 8.65065 7.35305 8.69131 7.43068 8.74677C7.51201 8.80592 7.61553 8.87985 7.74492 8.97227C7.99261 9.14972 8.19593 9.2939 8.3586 9.40481C8.52126 9.51571 8.71719 9.63771 8.95009 9.77449C9.1793 9.91128 9.39741 10.0148 9.60444 10.0813C9.80776 10.1479 10 10.1848 10.1738 10.1848H10.1959C10.3697 10.1848 10.5582 10.1516 10.7653 10.0813C10.9686 10.0148 11.1867 9.91128 11.4196 9.77449C11.6488 9.63771 11.8484 9.51571 12.0111 9.40481C12.1738 9.2939 12.3771 9.14972 12.6248 8.97227C12.7542 8.87985 12.8577 8.80592 12.939 8.74677C13.0166 8.69131 13.0721 8.65065 13.1091 8.62477C13.3567 8.45102 13.7412 8.18484 14.2588 7.82625C15.2015 7.1719 16.5878 6.20702 18.4251 4.93161C18.9797 4.54713 19.4418 4.07763 19.8115 3.5342C20.1811 2.99076 20.3697 2.41775 20.3697 1.81885C20.3697 1.31978 20.1885 0.890943 19.8299 0.536044C19.464 0.177449 19.0351 0 18.5434 0Z" fill="white"/>
</svg>
