<svg width="25" height="25" viewBox="0 0 25 25" fill="none" xmlns="http://www.w3.org/2000/svg">
<path d="M12.5 0C5.59563 0 0 5.59563 0 12.5C0 19.4044 5.59563 25 12.5 25C19.4044 25 25 19.4044 25 12.5C25 5.59563 19.4044 0 12.5 0ZM19.1004 18.2399L18.1008 19.2395C17.9204 19.4198 17.4 19.528 17.3846 19.528C14.2158 19.5538 11.1707 18.312 8.92931 16.0707C6.68281 13.8242 5.4359 10.7636 5.47197 7.5845C5.47197 7.5845 5.58533 7.0744 5.76566 6.89922L6.76525 5.89963C7.13108 5.5338 7.83697 5.36377 8.32646 5.52865L8.53772 5.60078C9.0272 5.76566 9.54761 6.30668 9.68157 6.81162L10.1865 8.66138C10.3205 9.16117 10.1401 9.87737 9.77432 10.2432L9.10449 10.913C9.75886 13.3399 11.6653 15.2463 14.0973 15.9058L14.7671 15.236C15.1329 14.8702 15.8491 14.6847 16.3489 14.8186L18.1987 15.3236C18.6985 15.4627 19.2446 15.9728 19.4095 16.4674L19.4817 16.6787C19.6311 17.1733 19.4662 17.8741 19.1004 18.2399Z" fill="#009EE3"/>
</svg>
