<svg width="12" height="16" viewBox="0 0 12 16" fill="none" xmlns="http://www.w3.org/2000/svg">
<path d="M5.83435 0C2.60925 0 0 2.63395 0 5.88957C0 6.74029 0.178272 7.54192 0.502402 8.29448C1.96099 11.5174 4.74851 14.9202 5.57505 15.8855C5.63987 15.9509 5.72091 16 5.81814 16C5.91538 16 5.99642 15.9509 6.06124 15.8855C6.88778 14.9202 9.6753 11.5174 11.1339 8.29448C11.4742 7.54192 11.6363 6.74029 11.6363 5.88957C11.6525 2.63395 9.04324 0 5.83435 0ZM5.83435 8.94888C4.16508 8.94888 2.80373 7.57464 2.80373 5.88957C2.80373 4.2045 4.16508 2.83027 5.83435 2.83027C7.50362 2.83027 8.86497 4.2045 8.86497 5.88957C8.86497 7.57464 7.50362 8.94888 5.83435 8.94888Z" fill="white"/>
</svg>
